#!OML:ASF F:\VICON\USERDATA\INSTALL\rory3\rory3.ASF
:FULLY-SPECIFIED
:DEGREES
2020
root 0.129615 20.3305 3.27743 17.2587 -3.38476 -1.02922
lowerback -4.92585 0.407263 3.07067
upperback -5.21014 0.466795 0.736472
thorax -2.5908 0.147023 -0.949454
lowerneck -11.233 -6.90792 -9.23851
upperneck 30.1445 -8.15404 1.07363
head 12.2636 -4.57644 0.830578
rclavicle 4.69629e-015 9.54166e-015
rhumerus -33.9009 14.9137 -86.6206
rradius 38.1512
rwrist 12.7326
rhand -25.1503 -44.9158
rfingers 7.12502
rthumb 1.36638 -794.891
lclavicle 4.69629e-015 9.54166e-015
lhumerus -40.0048 -20.1008 84.2538
lradius 47.3006
lwrist 2.61165
lhand -27.363 -36.0377
lfingers 7.12502
lthumb -0.770706 -6.05935
rfemur -31.9829 -6.20331 6.45963
rtibia 34.91
rfoot 21.6357 -19.486
rtoes -20.08
lfemur -30.2614 9.62548 -3.17275
ltibia 32.8715
lfoot 21.562 4.56987
ltoes -14.1225
2021
root 0.150677 20.426 3.26302 16.7043 -4.26087 -1.07979
lowerback -4.24779 0.635148 3.1279
upperback -4.93368 0.78927 0.666762
thorax -2.66812 0.307112 -1.05059
lowerneck -11.5183 -6.60029 -8.91514
upperneck 30.5481 -7.69351 0.849836
head 12.4292 -4.36412 0.748142
rclavicle 1.14053e-014 -1.11319e-014
rhumerus -33.7909 15.1964 -87.0611
rradius 37.8582
rwrist 13.4803
rhand -25.0109 -45.1343
rfingers 7.12502
rthumb 1.50102 -795.109
lclavicle 1.14053e-014 -1.11319e-014
lhumerus -39.919 -19.1994 84.5299
lradius 46.4825
lwrist 2.65284
lhand -27.1561 -36.1302
lfingers 7.12502
lthumb -0.570844 -6.15121
rfemur -32.1724 -6.25508 6.33196
rtibia 35.7623
rfoot 21.1186 -18.2912
rtoes -19.8037
lfemur -29.2365 10.4638 -3.29532
ltibia 33.2503
lfoot 21.2402 4.14177
ltoes -13.0288
2022
root 0.161077 20.5024 3.22147 16.5684 -4.66541 -1.09151
lowerback -3.65023 0.725086 3.09023
upperback -4.88746 0.932482 0.624115
thorax -2.94852 0.375754 -1.07795
lowerneck -11.8409 -6.34254 -8.61892
upperneck 31.0053 -7.31241 0.676027
head 12.6375 -4.18474 0.674687
rclavicle -5.29264e-015 -2.5842e-014
rhumerus -33.7294 15.4617 -87.5303
rradius 37.5349
rwrist 14.1397
rhand -24.5154 -45.4041
rfingers 7.12502
rthumb 1.97964 -795.375
lclavicle -5.29264e-015 -2.5842e-014
lhumerus -39.9263 -18.3007 84.752
lradius 45.7813
lwrist 2.62918
lhand -26.9374 -36.2262
lfingers 7.12502
lthumb -0.359619 -6.24673
rfemur -32.6566 -6.30957 6.20084
rtibia 36.4607
rfoot 18.9576 -19.247
rtoes -14.4911
lfemur -28.9588 10.9754 -3.35215
ltibia 33.4667
lfoot 20.978 3.65177
ltoes -13.0851
2023
root 0.173144 20.5657 3.16747 16.3786 -4.93525 -1.22006
lowerback -2.72161 0.778946 3.21831
upperback -4.91543 1.04218 0.617435
thorax -3.49335 0.417895 -1.16865
lowerneck -11.9588 -6.02614 -8.18956
upperneck 31.3008 -6.85152 0.362572
head 12.7231 -3.97333 0.547613
rclavicle -6.53505e-015 2.38542e-015
rhumerus -33.7309 16.0197 -88.0931
rradius 37.1737
rwrist 14.1601
rhand -24.8173 -45.5485
rfingers 7.12502
rthumb 1.68797 -795.522
lclavicle -6.53505e-015 2.38542e-015
lhumerus -40.047 -17.3621 84.9755
lradius 45.1751
lwrist 2.61616
lhand -26.6348 -36.0017
lfingers 7.12502
lthumb -0.0674094 -6.02193
rfemur -33.0065 -6.34141 6.17877
rtibia 36.973
rfoot 16.6519 -20.0891
rtoes -7.96461
lfemur -28.695 11.3595 -3.22449
ltibia 33.5031
lfoot 20.896 3.50787
ltoes -13.8143
2024
root 0.192652 20.6279 3.12597 16.1101 -5.01518 -1.26541
lowerback -1.945 0.723408 3.4009
upperback -4.8855 1.00018 0.596655
thorax -3.89981 0.383725 -1.30248
lowerneck -11.7273 -5.64243 -7.76754
upperneck 31.3321 -6.32535 0.0679941
head 12.6276 -3.73197 0.452998
rclavicle -1.43373e-014 -2.38542e-015
rhumerus -33.7749 16.9163 -88.7633
rradius 36.8082
rwrist 14.0324
rhand -25.3286 -45.9249
rfingers 7.12502
rthumb 1.19424 -795.901
lclavicle -1.43373e-014 -2.38542e-015
lhumerus -40.163 -16.3431 85.156
lradius 44.515
lwrist 2.87215
lhand -26.144 -35.0155
lfingers 7.12502
lthumb 0.406676 -5.03611
rfemur -33.1342 -6.82799 6.15773
rtibia 37.3241
rfoot 16.3626 -18.6517
rtoes -7.21646
lfemur -28.3239 11.6081 -3.20103
ltibia 33.392
lfoot 20.9424 3.47624
ltoes -14.6978
2025
root 0.196069 20.6784 3.10399 15.7683 -5.21229 -1.36394
lowerback -1.49675 0.700138 3.3603
upperback -4.73483 0.985596 0.627849
thorax -3.99753 0.37864 -1.25256
lowerneck -11.8017 -5.30799 -7.49798
upperneck 31.6135 -5.87512 -0.0156822
head 12.7223 -3.51531 0.437875
rclavicle 9.86469e-015 1.43125e-014
rhumerus -33.8046 17.6147 -89.3682
rradius 36.4083
rwrist 14.429
rhand -25.8679 -45.9056
rfingers 7.12502
rthumb 0.673343 -795.884
lclavicle 9.86469e-015 1.43125e-014
lhumerus -40.174 -15.3557 85.2521
lradius 43.7879
lwrist 3.17197
lhand -25.7316 -34.0066
lfingers 7.12502
lthumb 0.80502 -4.02838
rfemur -33.1426 -7.01642 6.22
rtibia 37.5221
rfoot 16.3776 -16.7035
rtoes -8.9706
lfemur -27.7285 11.9653 -3.07656
ltibia 33.1198
lfoot 21.0304 3.37024
ltoes -15.7729
2026
root 0.206402 20.7159 3.07545 15.4001 -5.23685 -1.44193
lowerback -0.900441 0.670321 3.45919
upperback -4.61926 0.970464 0.625114
thorax -4.21423 0.365075 -1.3176
lowerneck -11.833 -4.99923 -7.37363
upperneck 31.9126 -5.47803 0.0563042
head 12.8314 -3.31967 0.49989
rclavicle -6.60959e-015 -6.16232e-015
rhumerus -33.6817 17.8787 -89.7752
rradius 35.8936
rwrist 14.9662
rhand -26.1419 -45.58
rfingers 7.12502
rthumb 0.408733 -795.559
lclavicle -6.60959e-015 -6.16232e-015
lhumerus -40.1288 -14.3401 85.2779
lradius 43.1319
lwrist 3.17525
lhand -25.5515 -33.8762
lfingers 7.12502
lthumb 0.978964 -3.89871
rfemur -33.0004 -7.40724 6.27446
rtibia 37.5965
rfoot 15.9589 -15.5607
rtoes -7.92665
lfemur -27.1677 12.1658 -2.97061
ltibia 32.7185
lfoot 21.3497 3.47711
ltoes -15.6768
2027
root 0.213799 20.7442 3.03953 15.1336 -5.2067 -1.46546
lowerback -0.155991 0.635766 3.45993
upperback -4.67787 0.958677 0.610029
thorax -4.69902 0.350126 -1.34332
lowerneck -11.0369 -4.62851 -7.29229
upperneck 31.8752 -5.03932 0.102031
head 12.6242 -3.11521 0.59072
rclavicle -1.00883e-014 9.14409e-015
rhumerus -33.6477 18.0765 -90.1512
rradius 35.3304
rwrist 15.3404
rhand -25.739 -45.4192
rfingers 7.12502
rthumb 0.797842 -795.397
lclavicle -1.00883e-014 9.14409e-015
lhumerus -40.2769 -13.3493 85.3117
lradius 42.5286
lwrist 3.10652
lhand -25.2571 -33.7648
lfingers 7.12502
lthumb 1.26324 -3.78878
rfemur -32.9776 -7.73251 6.27615
rtibia 37.63
rfoot 15.8443 -15.218
rtoes -7.94778
lfemur -26.7157 12.3049 -2.91236
ltibia 32.2268
lfoot 21.7399 3.94231
ltoes -14.0831
2028
root 0.219461 20.7659 3.01123 14.9766 -4.96752 -1.45505
lowerback 0.623989 0.511912 3.41518
upperback -4.92094 0.8325 0.61121
thorax -5.40665 0.274746 -1.32199
lowerneck -10.83 -4.56156 -7.33737
upperneck 32.284 -4.97988 0.180589
head 12.7522 -3.09254 0.637732
rclavicle -2.70844e-015 -1.31198e-014
rhumerus -33.9535 18.2025 -90.5288
rradius 34.8227
rwrist 15.9629
rhand -25.88 -44.5564
rfingers 7.12502
rthumb 0.66164 -794.535
lclavicle -2.70844e-015 -1.31198e-014
lhumerus -40.7224 -12.3557 85.3496
lradius 41.919
lwrist 2.96761
lhand -25.0119 -33.3164
lfingers 7.12502
lthumb 1.50006 -3.34195
rfemur -32.9322 -8.28788 6.31575
rtibia 37.6069
rfoot 15.2888 -14.8128
rtoes -8.8205
lfemur -26.3926 12.1915 -2.84761
ltibia 31.6861
lfoot 21.8356 4.39217
ltoes -13.5767
2029
root 0.229538 20.7736 2.9894 14.818 -4.62008 -1.43798
lowerback 0.869637 0.38189 3.51089
upperback -4.78639 0.668463 0.588898
thorax -5.41262 0.189824 -1.39194
lowerneck -10.4318 -4.39173 -7.44017
upperneck 32.1467 -4.82031 0.432825
head 12.6128 -3.00267 0.786356
rclavicle -1.98288e-014 -5.56597e-015
rhumerus -33.5716 18.1499 -90.5902
rradius 34.3267
rwrist 16.5408
rhand -26.3834 -43.7538
rfingers 7.12502
rthumb 0.175439 -793.734
lclavicle -1.98288e-014 -5.56597e-015
lhumerus -40.3681 -11.4663 85.2889
lradius 41.0144
lwrist 2.80214
lhand -25.2506 -33.2904
lfingers 7.12502
lthumb 1.26955 -3.31441
rfemur -32.7339 -9.05905 6.38507
rtibia 37.4975
rfoot 15.3884 -14.8681
rtoes -6.63499
lfemur -26.0713 11.8431 -2.75569
ltibia 31.0761
lfoot 21.8665 4.75015
ltoes -14.3126
2030
root 0.238414 20.7692 2.96999 14.7233 -4.36882 -1.36388
lowerback 1.08616 0.275395 3.46004
upperback -4.68835 0.531496 0.596646
thorax -5.44029 0.124888 -1.3493
lowerneck -9.85971 -4.15362 -7.67523
upperneck 31.7331 -4.60957 0.891578
head 12.3296 -2.87699 1.04719
rclavicle -5.81445e-015 6.16232e-015
rhumerus -33.0638 17.9583 -90.4699
rradius 33.7919
rwrist 17.2961
rhand -26.7654 -43.0684
rfingers 7.12502
rthumb -0.193477 -793.048
lclavicle -5.81445e-015 6.16232e-015
lhumerus -39.9783 -10.5393 85.2589
lradius 40.0753
lwrist 2.56776
lhand -25.3799 -33.6213
lfingers 7.12502
lthumb 1.14466 -3.64462
rfemur -32.5959 -9.73452 6.38352
rtibia 37.2855
rfoot 14.6737 -15.1224
rtoes -6.60075
lfemur -25.7478 11.5573 -2.74211
ltibia 30.3914
lfoot 21.9592 5.09361
ltoes -14.0881
2031
root 0.242236 20.7555 2.96075 14.7478 -4.15287 -1.31557
lowerback 1.08103 0.219472 3.33782
upperback -4.60544 0.450523 0.616623
thorax -5.35419 0.0928237 -1.25552
lowerneck -10.7091 -4.32811 -7.7289
upperneck 32.2041 -4.80361 0.965423
head 12.7183 -2.9609 1.03613
rclavicle 4.22417e-016 2.38542e-014
rhumerus -32.594 17.2776 -90.1311
rradius 33.3619
rwrist 18.4889
rhand -26.9678 -42.2618
rfingers 7.12502
rthumb -0.388991 -792.241
lclavicle 4.22417e-016 2.38542e-014
lhumerus -39.7297 -9.63687 85.217
lradius 39.402
lwrist 2.14873
lhand -25.2197 -33.5214
lfingers 7.12502
lthumb 1.29939 -3.54558
rfemur -32.5855 -10.3094 6.41382
rtibia 37.0199
rfoot 15.281 -15.5418
rtoes -6.86606
lfemur -25.4917 11.331 -2.70211
ltibia 29.6725
lfoot 21.983 5.33575
ltoes -13.3175
2032
root 0.24463 20.7297 2.95753 14.9096 -3.82121 -1.3809
lowerback 0.783766 0.202476 3.36226
upperback -4.53534 0.415687 0.648623
thorax -5.11219 0.0798087 -1.23259
lowerneck -10.4005 -4.24239 -7.932
upperneck 32.0257 -4.75495 1.28598
head 12.591 -2.92187 1.20878
rclavicle -2.68359e-015 -1.74931e-014
rhumerus -32.3014 16.5104 -89.7851
rradius 33.1273
rwrist 19.0445
rhand -26.3073 -42.1012
rfingers 7.12502
rthumb 0.248904 -792.081
lclavicle -2.68359e-015 -1.74931e-014
lhumerus -39.5367 -9.00562 85.2714
lradius 38.955
lwrist 1.82493
lhand -25.2084 -32.8526
lfingers 7.12502
lthumb 1.31033 -2.87683
rfemur -32.6112 -10.9062 6.57918
rtibia 36.6723
rfoot 16.0383 -15.9715
rtoes -6.53457
lfemur -25.437 11.0171 -2.52537
ltibia 28.9498
lfoot 22.0269 5.6326
ltoes -12.7197
2033
root 0.241507 20.689 2.92926 15.476 -2.88994 -1.47574
lowerback 0.494722 -0.00954186 3.50514
upperback -4.70286 0.131466 0.723825
thorax -5.1373 -0.0680798 -1.21922
lowerneck -10.4172 -4.20179 -7.88415
upperneck 31.9768 -4.71705 1.33331
head 12.5708 -2.8916 1.22436
rclavicle 6.4605e-016 -3.57812e-015
rhumerus -32.0618 16.2376 -89.6693
rradius 32.8345
rwrist 18.5071
rhand -25.6869 -42.0738
rfingers 7.12502
rthumb 0.848106 -792.052
lclavicle 6.4605e-016 -3.57812e-015
lhumerus -39.3976 -8.39117 85.2664
lradius 38.7151
lwrist 1.74193
lhand -25.0727 -32.3841
lfingers 7.12502
lthumb 1.44132 -2.40918
rfemur -32.9479 -11.8248 6.94809
rtibia 36.3259
rfoot 16.473 -16.3003
rtoes -6.02347
lfemur -26.1638 10.4911 -2.28865
ltibia 28.2258
lfoot 22.3854 5.9673
ltoes -11.3417
